# Blender v2.91.0 OBJ File: ''
# www.blender.org
mtllib skybox.mtl
o Cube.001
v -1.000000 1.000000 -1.000000
v 1.000000 1.000000 1.000000
v 1.000000 1.000000 -1.000000
v -1.000000 -1.000000 1.000000
v 1.000000 -1.000000 1.000000
v -1.000000 1.000000 1.000000
v -1.000000 -1.000000 -1.000000
v 1.000000 -1.000000 -1.000000
vt 0.500000 1.000000
vt 0.500000 0.666667
vt 0.250000 0.666667
vt 0.250000 0.333333
vt 0.000000 0.333333
vt 1.000000 0.666667
vt 1.000000 0.333333
vt 0.750000 0.333333
vt 0.500000 0.333333
vt 0.500000 0.000000
vt 0.250000 0.000000
vt 0.750000 0.666667
vt 0.250000 1.000000
vt -0.000000 0.666667
vn 0.0000 -1.0000 -0.0000
vn 0.0000 0.0000 -1.0000
vn 1.0000 0.0000 0.0000
vn 0.0000 1.0000 0.0000
vn -1.0000 0.0000 0.0000
vn 0.0000 -0.0000 1.0000
usemtl Material.001
s 1
f 1/1/1 3/2/1 2/3/1
f 2/3/2 5/4/2 4/5/2
f 6/6/3 4/7/3 7/8/3
f 8/9/4 7/10/4 4/11/4
f 3/2/5 8/9/5 5/4/5
f 1/12/6 7/8/6 8/9/6
f 1/1/1 2/3/1 6/13/1
f 2/3/2 4/5/2 6/14/2
f 6/6/3 7/8/3 1/12/3
f 8/9/4 4/11/4 5/4/4
f 3/2/5 5/4/5 2/3/5
f 1/12/6 8/9/6 3/2/6
